# xmcd
#
# Track frame offsets: 
#        150
#        13380
#        28945
#
# Disc length: 557 seconds
#
# Revision: 4
# Processed by: cddbd v1.5.1PL2 Copyright (c) Steve Scherf et al.
# Submitted via: ExactAudioCopy v0.95b3
#
DISCID=22022b03
DTITLE=TOMMY HEAVENLY6 - Ready? (EP)
DYEAR=2005
DGENRE=Pop
TTITLE0=Ready?
TTITLE1=Gimme All Of Your Love!!
TTITLE2=Ready? (Original Instrumental)
EXTD=YEAR: 2005
EXTT0=
EXTT1=
EXTT2=
PLAYORDER=
